<?xml version="1.0" encoding="UTF-8"?>
<svg id="Pokeball" xmlns="http://www.w3.org/2000/svg" version="1.1" xmlns:xlink="http://www.w3.org/1999/xlink" viewBox="0 0 200 200">
  <!-- Generator: Adobe Illustrator 29.6.1, SVG Export Plug-In . SVG Version: 2.1.1 Build 9)  -->
  <defs>
    <style>
      .st0, .st1, .st2 {
        fill: #fff;
      }

      .st0, .st3 {
        opacity: .2;
      }

      .st1 {
        display: none;
      }

      .st4 {
        fill: #f2f2f2;
      }

      .st5 {
        fill: #414447;
      }

      .st6 {
        fill: #e03434;
      }

      .st7 {
        opacity: 0;
      }

      .st2 {
        filter: url(#outer-glow-1);
      }
    </style>
    <filter id="outer-glow-1" x="86" y="91" width="33" height="33" filterUnits="userSpaceOnUse">
      <feOffset dx="0" dy="0"/>
      <feGaussianBlur result="blur" stdDeviation="1"/>
      <feFlood flood-color="#000" flood-opacity=".2"/>
      <feComposite in2="blur" operator="in"/>
      <feComposite in="SourceGraphic"/>
    </filter>
  </defs>
  <circle class="st4" cx="102.3" cy="103" r="82.5"/>
  <path class="st6" d="M184.8,102.7c-.1-45.4-37-82.2-82.5-82.2S20,57.3,19.9,102.7h164.9Z"/>
  <g>
    <path class="st5" d="M73.3,118c-1.2-3.3-1.9-6.9-1.9-10.6s.5-6,1.3-8.8l-25.9-2.7-26.4-2.7c-.4,3.2-.6,6.5-.6,9.9s.2,6.4.6,9.5l26.4,2.7,26.4,2.7Z"/>
    <path class="st5" d="M131.9,98.5c.8,2.8,1.3,5.8,1.3,8.8s-.7,7.3-1.9,10.6l26.5-2.7,26.4-2.7c.4-3.1.6-6.3.6-9.5s-.2-6.6-.6-9.9l-26.4,2.7-25.9,2.7Z"/>
    <path class="st5" d="M76,98.8l-3.3-.3c-.8,2.8-1.3,5.8-1.3,8.8s.7,7.3,1.9,10.6h.7c0,0,2-19.1,2-19.1Z"/>
    <path class="st5" d="M131.9,98.5l-3.3.3,2,19.2h.7c1.2-3.4,1.9-7,1.9-10.7s-.5-6-1.3-8.8Z"/>
    <path class="st5" d="M131.9,98.5c-3.8-12.8-15.6-22.1-29.6-22.1s-25.8,9.3-29.6,22.1c-.8,2.8-1.3,5.8-1.3,8.8s.7,7.3,1.9,10.6c4.3,11.8,15.7,20.2,29,20.2s24.7-8.4,29-20.2c1.2-3.3,1.9-6.9,1.9-10.6s-.5-6-1.3-8.8ZM102.3,120.5c-7.3,0-13.2-5.9-13.2-13.2s5.9-13.2,13.2-13.2,13.2,5.9,13.2,13.2-5.9,13.2-13.2,13.2Z"/>
    <circle class="st2" cx="102.3" cy="107.3" r="13.2" transform="translate(-15.9 17.8) rotate(-9.2)"/>
    <g class="st3">
      <path d="M75.3,118c-1.2-3.3-1.9-6.9-1.9-10.6s.5-6,1.3-8.8c3.7-12.5,15.1-21.6,28.6-22-.3,0-.7,0-1,0-14,0-25.8,9.3-29.6,22.1-.8,2.8-1.3,5.8-1.3,8.8s.7,7.3,1.9,10.6c4.3,11.8,15.7,20.2,29,20.2s.7,0,1,0c-12.9-.4-23.8-8.7-28-20.2Z"/>
    </g>
    <g class="st3">
      <path d="M20.4,112.5l26.4,2.7,26.4,2.7c-.2-.5-.4-1-.5-1.6l-25.9-2.7-26.4-2.7"/>
    </g>
    <g class="st3">
      <path d="M184.2,111l-26.4,2.7-26,2.7c-.2.5-.3,1.1-.5,1.6l26.5-2.7,26.4-2.7"/>
    </g>
    <path class="st5" d="M73.3,118c-1.2-3.3-1.9-6.9-1.9-10.6s.5-6,1.3-8.8l-25.9-2.7-26.4-2.7c-.4,3.2-.6,6.5-.6,9.9s.2,6.4.6,9.5l26.4,2.7,26.4,2.7Z"/>
    <path class="st5" d="M131.9,98.5c.8,2.8,1.3,5.8,1.3,8.8s-.7,7.3-1.9,10.6l26.5-2.7,26.4-2.7c.4-3.1.6-6.3.6-9.5s-.2-6.6-.6-9.9l-26.4,2.7-25.9,2.7Z"/>
    <circle class="st1" cx="102.3" cy="107.3" r="13.2" transform="translate(-15.9 17.8) rotate(-9.2)"/>
  </g>
  <path id="Schatten" class="st7" d="M26.8,103c0-44.4,35-80.5,79-82.4-1.2,0-2.3,0-3.5,0-45.5,0-82.5,36.9-82.5,82.5s36.9,82.5,82.5,82.5,2.3,0,3.5,0c-43.9-1.8-79-38-79-82.4Z"/>
  <path id="Licht" class="st0" d="M177.8,103c0-44.4-35-80.5-79-82.4,1.2,0,2.3,0,3.5,0,45.5,0,82.5,36.9,82.5,82.5,0,45.5-36.9,82.5-82.5,82.5s-2.3,0-3.5,0c43.9-1.8,79-38,79-82.4Z"/>
</svg>